PathFileType	4	(X/Y/Z)	D:\TRACE\spotREDO_2-26-24\spot_baseline_4-v60.trc
DataRate	CameraRate	NumFrames	NumMarkers	Units	OrigDataRate	OrigDataStartFrame	OrigNumFrames
100.00	100.00	      14	9	mm	100.00	1	      7000
Frame#	Time	front left toe			Front right toe			aft left toe			aft right toe			Arm			FL body			FR body			AL Body			AR Body			
		X1	Y1	Z1	X2	Y2	Z2	X3	Y3	Z3	X4	Y4	Z4	X5	Y5	Z5	X6	Y6	Z6	X7	Y7	Z7	X8	Y8	Z8	X9	Y9	Z9	

1	0.000	-385.62903	23.16303	-120.51289	100.04861	21.45846	-289.47964	-177.92868	24.28233	438.40100	303.10950	25.84196	272.79971	-165.87450	810.70740	-328.94330	-233.62053	551.04388	-276.09222	-87.56848	556.27466	-331.21655	70.24252	568.94440	553.81818	210.04106	570.49493	503.89520	
2	0.010	-385.61526	23.15129	-120.50187	100.12991	21.47228	-289.45114	-177.96425	24.31815	438.46423	303.10410	25.84860	272.78879	-165.92171	810.62286	-329.00977	-233.86629	550.90216	-276.40210	-87.70780	556.21033	-331.42151	70.10289	568.41534	553.52856	210.03336	570.10132	503.52933	
3	0.020	-385.58603	23.02868	-120.49832	100.04421	21.44182	-289.47537	-178.00356	24.30288	438.50314	303.12888	25.80947	272.79645	-165.96890	810.41547	-329.11334	-234.09354	550.83911	-276.57425	-87.88903	556.12842	-331.59885	69.93429	567.98737	553.32806	209.76001	569.70245	503.29581	
4	0.030	-385.58588	23.01682	-120.49564	100.21056	21.25102	-289.50995	-178.02173	24.23853	438.49582	303.11545	25.75268	272.78946	-166.05576	810.32098	-329.23740	-234.24918	550.74304	-276.74994	-88.08624	556.03754	-331.82919	69.57976	567.26910	552.79852	209.54108	569.22864	503.22885	
5	0.040	-385.54739	23.06109	-120.51561	100.13927	21.38262	-289.44653	-177.90129	24.22075	438.50726	303.16229	25.73320	272.79398	-166.29750	810.29651	-329.35962	-234.36406	550.66638	-276.92758	-87.99001	555.76056	-331.69681	69.50328	566.92920	552.53400	209.39554	568.74847	502.88187	
6	0.050	-385.57678	23.13827	-120.54320	100.18910	21.42275	-289.48651	-177.92639	24.30203	438.56442	303.16827	25.76198	272.87305	-166.40666	810.25751	-329.47174	-234.65031	550.68738	-277.13776	-88.18336	555.69031	-331.98456	69.58882	567.02985	552.68127	209.42809	568.44983	502.68875	
7	0.060	-385.66171	23.17587	-120.51749	100.17966	21.46220	-289.44818	-177.88416	24.31418	438.55966	303.16928	25.82265	272.83875	-166.49994	810.26843	-329.61856	-234.81500	550.52112	-277.28299	-88.38082	555.60614	-332.30948	68.77459	566.69757	552.44104	209.38573	568.26849	502.56232	
8	0.070	-385.63629	23.07271	-120.45916	100.18762	21.35905	-289.48444	-177.86147	24.28361	438.59680	303.13919	25.78672	272.83847	-166.74115	810.05164	-329.92004	-234.99623	550.34882	-277.52109	-88.59573	555.51630	-332.58136	68.07328	566.40619	552.00085	209.47847	567.91663	502.17273	
9	0.080	-385.65656	23.04480	-120.46035	100.00793	21.46518	-289.48062	-177.94000	24.27639	438.56564	303.13635	25.80723	272.79916	-166.87578	809.94495	-330.09872	-235.19336	550.22357	-277.78714	-88.74251	555.42078	-332.79642	70.24730	565.86316	551.87860	209.47575	567.69189	501.81555	
10	0.090	-385.65863	23.00589	-120.48116	99.69045	21.09961	-289.92822	-177.93181	24.33563	438.54285	303.08682	25.82172	272.80856	-167.16927	809.73151	-330.26648	-235.36406	550.15479	-278.10373	-89.09417	555.40448	-333.21658	69.79359	565.81293	551.66754	209.36035	567.47900	501.44205	
11	0.100	-385.65112	23.05759	-120.47875	100.08305	21.43395	-289.49289	-177.91782	24.34785	438.56992	303.08435	25.86151	272.80719	-167.70282	809.59082	-330.49490	-235.53175	550.06329	-278.29681	-89.08109	555.19568	-333.22827	69.57118	565.65491	551.45410	209.23700	567.37384	501.27823	
12	0.110	-385.67984	23.15079	-120.52901	100.11967	21.42591	-289.50308	-177.93906	24.35360	438.54987	303.06467	25.86903	272.82428	-167.95491	809.48267	-330.62512	-235.69830	549.88611	-278.55536	-89.27128	555.12598	-333.49448	69.20515	565.54926	551.16022	209.04570	567.20569	501.04309	
13	0.120	-385.66351	23.09830	-120.46239	100.13650	21.47070	-289.55313	-177.83575	24.24313	438.55087	303.13727	25.86006	272.80023	-168.11847	809.34009	-330.78787	-235.82297	549.68896	-278.77182	-89.81213	555.08661	-334.12585	68.59123	565.20905	550.52759	208.88148	567.09985	500.78275	
14	0.130	-385.70706	22.97398	-120.43020	100.01635	21.46252	-289.52963	-177.94057	24.28670	438.57703	303.09647	25.84960	272.86856	-168.24069	809.19983	-331.04593	-236.04938	549.46576	-278.98492	-90.07645	554.96613	-334.37408	68.39790	565.19403	550.22546	208.76689	567.06793	500.51270	
